<?xml version="1.0" encoding="utf-8"?>
<!-- Generator: Adobe Illustrator 22.1.0, SVG Export Plug-In . SVG Version: 6.00 Build 0)  -->
<svg xmlns="http://www.w3.org/2000/svg" xmlns:xlink="http://www.w3.org/1999/xlink" version="1.1" id="Layer_1" x="0px" y="0px" viewBox="0 0 256 256" style="enable-background:new 0 0 256 256;" xml:space="preserve" width="512" height="512">
<style type="text/css">
	.st0{fill:#FFDF74;}
	.st1{fill:#FCE575;}
	.st2{fill:#FFD551;}
	.st3{fill:#F9BB32;}
	.st4{fill:#FFF4C1;}
	.st5{fill:#DB9C2E;}
	.st6{fill:#FFC34C;}
	.st7{fill:#FFEA63;}
	.st8{fill:#A56021;}
	.st9{fill:#E58D23;}
	.st10{fill:#CCC033;}
	.st11{fill:#99AF17;}
	.st12{fill:#FCDA4F;}
	.st13{fill:#8C4C17;}
	.st14{fill:#BF6C0D;}
	.st15{fill:#FFA730;}
	.st16{fill:#FF624B;}
	.st17{fill:#FCF9DE;}
	.st18{fill:#FFEACF;}
	.st19{fill:#FFD59A;}
	.st20{fill:#EACF32;}
	.st21{fill:#FF4B34;}
	.st22{fill:#FF9079;}
	.st23{fill:#FFB74B;}
</style>
<g>
	<g>
		<g>
			<rect x="106.25" y="158.893" class="st5" width="45" height="84"/>
		</g>
	</g>
	<g>
		<g>
			<rect x="106.25" y="158.893" class="st14" width="20" height="84"/>
		</g>
	</g>
	<g>
		<g>
			<circle class="st14" cx="136.786" cy="222.309" r="9"/>
		</g>
	</g>
	<g>
		<g>
			<path class="st3" d="M233.509,188.054H22.491C14.488,188.054,8,181.566,8,173.562V22.545c0-8.003,6.488-14.491,14.491-14.491     h211.017c8.003,0,14.491,6.488,14.491,14.491v151.017C248,181.566,241.512,188.054,233.509,188.054z"/>
		</g>
	</g>
	<g>
		<g>
			<path class="st5" d="M36,173.562V22.545c0-8.003,6.488-14.492,14.491-14.492h-28C14.488,8.053,8,14.542,8,22.545v151.017     c0,8.003,6.488,14.491,14.491,14.491h28C42.488,188.053,36,181.566,36,173.562z"/>
		</g>
	</g>
	<g>
		<g>
			<path class="st4" d="M240,139.364V22.373c0-3.592-2.686-6.504-6-6.504H22c-3.314,0-6,2.912-6,6.504v116.991     c0,3.592,2.686,6.504,6,6.504h212C237.314,145.868,240,142.956,240,139.364z"/>
		</g>
	</g>
	<g>
		<g>
			<path class="st2" d="M201.75,247.947h-146c-3.866,0-7-3.134-7-7v0c0-3.866,3.134-7,7-7h146c3.866,0,7,3.134,7,7v0     C208.75,244.813,205.616,247.947,201.75,247.947z"/>
		</g>
	</g>
	<g>
		<g>
			<g>
				<circle class="st0" cx="128" cy="169.269" r="13.5"/>
			</g>
		</g>
	</g>
	<g>
		<g>
			<path class="st16" d="M191.942,138.22H97.428c-2.619,0-4.743-2.124-4.743-4.743V68.963c0-2.619,2.124-4.743,4.743-4.743h94.514     c2.619,0,4.743,2.124,4.743,4.743v64.514C196.685,136.096,194.561,138.22,191.942,138.22z"/>
		</g>
	</g>
	<g>
		<g>
			<path class="st3" d="M151.67,105.459l-12.085-12.085c0,0,41.959-54.286,71.617-74.103l-0.003-0.002c0,0,0.082-0.053,0.222-0.145     c0.593-0.393,1.181-0.776,1.764-1.141c1.944-1.247,4.753-3.015,5.732-3.456c0.003-0.002,0.006-0.001,0.01-0.002     c3.463-1.923,7.669-1.619,10.337,1.048l0.209,0.209c2.673,2.673,2.973,6.892,1.037,10.359l0.021-0.001     c-0.701,1.553-4.742,7.718-4.742,7.718l-0.012-0.018C205.96,63.497,151.67,105.459,151.67,105.459z"/>
		</g>
	</g>
	<g>
		<g>
			<path class="st5" d="M230.24,25.838c-0.004,0.002-0.006,0.001-0.01,0.002c-0.979,0.442-3.787,2.209-5.732,3.456     c-0.582,0.365-1.171,0.747-1.764,1.141c-0.141,0.092-0.222,0.145-0.222,0.145l0.004,0.002     c-29.658,19.817-71.617,74.103-71.617,74.103l-11.314-11.314c0,0,41.959-54.287,71.617-74.103l-0.003-0.002     c0,0,0.082-0.054,0.222-0.145c0.593-0.393,1.181-0.776,1.764-1.141c1.945-1.247,4.753-3.015,5.732-3.456     c0.004-0.002,0.006-0.001,0.01-0.002c3.463-1.923,7.669-1.619,10.337,1.048l0.209,0.209c2.523,2.523,2.93,6.421,1.34,9.766     C230.62,25.638,230.429,25.733,230.24,25.838z"/>
		</g>
	</g>
	<g>
		<g>
			<path class="st2" d="M177.967,84.129c-14.134,12.237-25.265,20.841-25.265,20.841L140.271,92.54c0,0,8.604-11.131,20.841-25.265     L177.967,84.129z"/>
		</g>
	</g>
	<g>
		<g>
			<path class="st6" d="M157.242,98.196l1.768,1.768c-3.937,3.172-6.308,5.005-6.308,5.005l-12.431-12.431     c0,0,8.604-11.131,20.841-25.265l11.754,11.754C163.472,90.138,157.242,98.196,157.242,98.196z"/>
		</g>
	</g>
	<g>
		<g>
			<path class="st1" d="M110.519,131.233c4.426-1.793,15.549-2.29,21.569-2.427c1.323,0.149,2.672,0.129,4.018-0.053     c0,0,0.005,0,0.005,0l0-0.001c4.998-0.676,9.959-3.583,13.379-8.367c6.054-8.469,4.986-19.607-2.386-24.877     c-6.402-4.577-15.452-3.22-21.688,2.762l-0.001-0.002c-6.618,5.412-13.62,25.026-15.949,31.984     C109.251,130.897,109.889,131.488,110.519,131.233z"/>
		</g>
	</g>
	<g>
		<g>
			<path class="st0" d="M135.316,108.17l-0.001-0.002c-4.275,3.496-8.708,12.914-11.94,21.022     c-4.993,0.342-10.163,0.951-12.856,2.042c-0.63,0.255-1.268-0.336-1.052-0.981c2.329-6.958,9.331-26.571,15.949-31.984     l0.001,0.002c6.236-5.983,15.286-7.339,21.688-2.762c2.718,1.943,4.572,4.687,5.535,7.796     C146.9,101.627,140.235,103.452,135.316,108.17z"/>
		</g>
	</g>
	<g>
		<g>
			<circle class="st10" cx="84.692" cy="54.877" r="33.376"/>
		</g>
	</g>
	<g>
		<g>
			<path class="st1" d="M22,15.868c-3.314,0-6,2.912-6,6.504v116.991c0,3.592,2.686,6.504,6,6.504h14V22.545     c0-2.41,0.597-4.677,1.638-6.677H22z"/>
		</g>
	</g>
	<g>
		<g>
			<path class="st2" d="M126.5,169.269c0-5.287,3.063-9.861,7.5-12.076c-1.81-0.903-3.843-1.424-6-1.424     c-7.443,0-13.5,6.056-13.5,13.5c0,7.444,6.057,13.5,13.5,13.5c2.157,0,4.19-0.521,6-1.424     C129.563,179.13,126.5,174.556,126.5,169.269z"/>
		</g>
	</g>
	<g>
		<g>
			<path class="st6" d="M76.75,240.946c0-3.866,3.134-7,7-7h-28c-3.866,0-7,3.134-7,7c0,3.866,3.134,7,7,7h28     C79.884,247.946,76.75,244.813,76.75,240.946z"/>
		</g>
	</g>
	<g>
		<g>
			<path class="st17" d="M232,140.684c-1.657,0-3-1.343-3-3V22.664c0-1.657,1.343-3,3-3s3,1.343,3,3v115.021     C235,139.341,233.657,140.684,232,140.684z"/>
		</g>
	</g>
	<g>
		<g>
			<circle class="st5" cx="49.44" cy="175.272" r="9"/>
		</g>
	</g>
</g>
</svg>
