<?xml version="1.0" encoding="utf-8"?>
<!-- Generator: Adobe Illustrator 22.1.0, SVG Export Plug-In . SVG Version: 6.00 Build 0)  -->
<svg xmlns="http://www.w3.org/2000/svg" xmlns:xlink="http://www.w3.org/1999/xlink" version="1.1" id="Layer_1" x="0px" y="0px" viewBox="0 0 256 256" style="enable-background:new 0 0 256 256;" xml:space="preserve" width="512" height="512">
<style type="text/css">
	.st0{fill:#FFDF74;}
	.st1{fill:#FCE575;}
	.st2{fill:#FFD551;}
	.st3{fill:#F9BB32;}
	.st4{fill:#FFF4C1;}
	.st5{fill:#DB9C2E;}
	.st6{fill:#FFC34C;}
	.st7{fill:#FFEA63;}
	.st8{fill:#A56021;}
	.st9{fill:#E58D23;}
	.st10{fill:#CCC033;}
	.st11{fill:#99AF17;}
	.st12{fill:#FCDA4F;}
	.st13{fill:#8C4C17;}
	.st14{fill:#BF6C0D;}
	.st15{fill:#FFA730;}
	.st16{fill:#FF624B;}
	.st17{fill:#FCF9DE;}
	.st18{fill:#FFEACF;}
	.st19{fill:#FFD59A;}
	.st20{fill:#EACF32;}
	.st21{fill:#FF4B34;}
	.st22{fill:#FF9079;}
	.st23{fill:#FFB74B;}
</style>
<g>
	<g>
		<g>
			<g>
				<rect x="75.99" y="181.927" class="st18" width="56.832" height="68.497"/>
			</g>
		</g>
		<g>
			<g>
				<rect x="75.99" y="181.927" class="st19" width="25.207" height="68.497"/>
			</g>
		</g>
		<g>
			<g>
				<path class="st18" d="M98.466,219.122h-0.832c-38.647,0-69.977-31.33-69.977-69.977v-42.295      c0-38.647,31.33-69.977,69.977-69.977h0.832c38.647,0,69.977,31.33,69.977,69.977v42.295      C168.442,187.793,137.113,219.122,98.466,219.122z"/>
			</g>
		</g>
		<g>
			<g>
				<path class="st19" d="M35.095,112.088L9.651,143.747C8.584,145.075,8,146.746,8,148.471v0.62c0,4.087,3.211,7.401,7.172,7.401      h19.922V112.088z"/>
			</g>
		</g>
		<g>
			<g>
				<path class="st19" d="M52.864,146.487v-36.978c0-35.676,24.927-65.342,57.789-71.472c-4.089-0.763-8.301-1.163-12.604-1.163h0      c-38.877,0-70.393,32.52-70.393,72.635v36.978c0,40.115,31.516,72.635,70.393,72.635h0c4.302,0,8.514-0.4,12.604-1.163      C77.791,211.83,52.864,182.163,52.864,146.487z"/>
			</g>
		</g>
		<g>
			<g>
				<path class="st8" d="M145.941,86.657h-106.8c-17.183,0-31.113-13.93-31.113-31.113V35.13c0-3.928,3.184-7.111,7.111-7.111      h113.023c19.638,0,35.557,15.92,35.557,35.557v5.302C163.72,78.697,155.76,86.657,145.941,86.657z"/>
			</g>
		</g>
		<g>
			<g>
				<path class="st8" d="M124.246,164.148v-81.48c0-9.819,7.96-17.779,17.779-17.779h21.271c9.819,0,17.779,7.96,17.779,17.779      v81.48c0,9.819-7.96,17.779-17.779,17.779h-21.271C132.205,181.927,124.246,173.967,124.246,164.148z"/>
			</g>
		</g>
		<g>
			<g>
				<path class="st14" d="M167.525,166.832c-1.657,0-3-1.343-3-3v-55.429c0-1.657,1.343-3,3-3s3,1.343,3,3v55.429      C170.525,165.488,169.183,166.832,167.525,166.832z"/>
			</g>
		</g>
		<g>
			<g>
				<ellipse class="st18" cx="124.246" cy="127.998" rx="25.707" ry="26.526"/>
			</g>
		</g>
		<g>
			<g>
				<ellipse class="st8" cx="66.103" cy="119.112" rx="8.468" ry="8.772"/>
			</g>
		</g>
		<g>
			<g>
				<path class="st13" d="M41.9,54.99V35.256c0-3.998,3.128-7.239,6.987-7.239H15.015c-3.859,0-6.987,3.241-6.987,7.239V54.99      c0,17.489,13.686,31.666,30.569,31.666h33.872C55.586,86.657,41.9,72.479,41.9,54.99z"/>
			</g>
		</g>
	</g>
	<g>
		<g>
			<path class="st20" d="M199.189,5.576h-32.948c-26.958,0-48.811,21.985-48.811,49.105v2.455c0,26.487,20.849,48.065,46.937,49.057     c-0.688,6.741-3.334,15.181-11.631,19.896c-2.197,1.248-1.379,4.61,1.144,4.615c11.151,0.021,27.425-3.787,34.143-24.463h11.166     c26.958,0,48.811-21.985,48.811-49.105v-2.455C248,27.561,226.147,5.576,199.189,5.576z"/>
		</g>
	</g>
	<g>
		<g>
			<path class="st1" d="M240,60.137c-1.657,0-3-1.343-3-3v-2.455c0-15.336-9.074-29.118-23.118-35.111     c-1.523-0.65-2.231-2.413-1.581-3.937c0.65-1.526,2.411-2.232,3.937-1.582C232.495,20.99,243,36.938,243,54.682v2.455     C243,58.793,241.657,60.137,240,60.137z"/>
		</g>
	</g>
	<g>
		<g>
			<path class="st1" d="M150.792,41.534c-0.004-0.249-0.011-0.498-0.021-0.746c0.147-1.15,1.096-2.038,2.248-2.038h7.53     c1.122,0,2.112,0.808,2.322,1.909c0.004,0.249,0.011,0.498,0.021,0.746c-0.146,1.15-1.096,2.038-2.248,2.038h-7.53     C151.992,43.443,151.002,42.635,150.792,41.534z"/>
		</g>
	</g>
	<g>
		<g>
			<path class="st1" d="M163.062,19.559c0.168-0.179,0.333-0.36,0.495-0.543c0.89-0.706,2.169-0.64,2.984,0.202l5.324,5.502     c0.794,0.82,0.941,2.114,0.336,3.047c-0.168,0.179-0.333,0.36-0.495,0.543c-0.89,0.706-2.169,0.641-2.984-0.201l-5.324-5.502     C162.604,21.786,162.457,20.491,163.062,19.559z"/>
		</g>
	</g>
	<g>
		<g>
			<path class="st1" d="M218.343,41.5c0.004-0.249,0.011-0.498,0.021-0.746c-0.147-1.15-1.096-2.038-2.248-2.038h-7.53     c-1.122,0-2.112,0.808-2.322,1.909c-0.004,0.249-0.011,0.498-0.021,0.746c0.146,1.15,1.096,2.038,2.248,2.038h7.53     C217.143,43.409,218.133,42.602,218.343,41.5z"/>
		</g>
	</g>
	<g>
		<g>
			<path class="st1" d="M206.073,19.525c-0.168-0.179-0.333-0.36-0.495-0.543c-0.89-0.706-2.169-0.64-2.984,0.202l-5.324,5.502     c-0.794,0.82-0.941,2.114-0.336,3.047c0.168,0.179,0.333,0.36,0.495,0.543c0.89,0.706,2.169,0.641,2.984-0.201l5.324-5.502     C206.531,21.752,206.678,20.457,206.073,19.525z"/>
		</g>
	</g>
	<g>
		<g>
			<path class="st4" d="M203.84,49.453c0-11.217-8.799-20.311-19.654-20.311s-19.654,9.093-19.654,20.311     c0,4.865,1.657,9.328,4.417,12.826c1.129,2.001,5.242,9.741,5.426,16.599v5.326h19.622v-5.199     c0.214-7.952,5.713-17.097,5.713-17.097h-0.006C202.294,58.469,203.84,54.149,203.84,49.453z"/>
		</g>
	</g>
	<g>
		<g>
			<path class="st1" d="M185.372,10.8c-0.241-0.004-0.482-0.011-0.722-0.022c-1.113,0.151-1.972,1.132-1.972,2.323v7.781     c0,1.16,0.781,2.183,1.847,2.4c0.241,0.004,0.482,0.011,0.721,0.022c1.113-0.151,1.972-1.132,1.972-2.323v-7.781     C187.22,12.04,186.438,11.017,185.372,10.8z"/>
		</g>
	</g>
	<g>
		<g>
			<path class="st1" d="M180.996,62.279c-2.76-3.497-4.417-7.961-4.417-12.826c0-9.044,5.724-16.7,13.63-19.33     c-1.899-0.632-3.921-0.981-6.024-0.981c-10.855,0-19.654,9.093-19.654,20.311c0,4.865,1.657,9.328,4.417,12.826     c1.129,2.001,5.242,9.741,5.426,16.6v5.326h12.048v-5.326C186.238,72.02,182.125,64.28,180.996,62.279z"/>
		</g>
	</g>
	<g>
		<g>
			<path class="st6" d="M184.568,100.778L184.568,100.778c-5.059,0-9.16-4.101-9.16-9.16v-3.426h18.319v3.426     C193.727,96.677,189.626,100.778,184.568,100.778z"/>
		</g>
	</g>
	<g>
		<g>
			<path class="st23" d="M181.432,91.312v-3.12h-6.024v3.12c0,5.228,4.101,9.466,9.16,9.466c1.057,0,2.067-0.194,3.012-0.535     C184.003,98.955,181.432,95.448,181.432,91.312z"/>
		</g>
	</g>
	<g>
		<g>
			<path class="st6" d="M191.902,90.182h-14.668c-2.027,0-3.669-1.643-3.669-3.669v-1.133c0-2.027,1.643-3.669,3.669-3.669h14.668     c2.027,0,3.669,1.643,3.669,3.669v1.133C195.571,88.539,193.928,90.182,191.902,90.182z"/>
		</g>
	</g>
	<g>
		<g>
			<path class="st23" d="M179.588,86.452V85.44c0-2.06,1.616-3.73,3.61-3.73h-6.024c-1.993,0-3.61,1.67-3.61,3.73v1.012     c0,2.06,1.616,3.73,3.61,3.73h6.024C181.204,90.182,179.588,88.512,179.588,86.452z"/>
		</g>
	</g>
	<g>
		<g>
			<path class="st6" d="M193.618,82.979h-18.1c-2.027,0-3.669-1.643-3.669-3.669v-1.133c0-2.027,1.643-3.669,3.669-3.669h18.1     c2.027,0,3.669,1.643,3.669,3.669v1.133C197.287,81.336,195.644,82.979,193.618,82.979z"/>
		</g>
	</g>
	<g>
		<g>
			<path class="st23" d="M177.872,79.249v-1.012c0-2.06,1.616-3.73,3.61-3.73h-6.024c-1.993,0-3.61,1.67-3.61,3.73v1.012     c0,2.06,1.616,3.73,3.61,3.73h6.024C179.488,82.979,177.872,81.309,177.872,79.249z"/>
		</g>
	</g>
	<g>
		<g>
			<path class="st12" d="M191.707,63.718c-0.313,0-0.622-0.146-0.816-0.422l-3.229-4.555l-2.611,4.48     c-0.188,0.323-0.538,0.513-0.913,0.496c-0.373-0.019-0.704-0.243-0.86-0.582l-2.01-4.379l-3.833,4.603     c-0.354,0.424-0.984,0.481-1.408,0.128c-0.425-0.354-0.482-0.984-0.129-1.409l4.849-5.821c0.22-0.264,0.56-0.397,0.9-0.351     c0.34,0.045,0.634,0.262,0.777,0.574l1.868,4.071l2.424-4.158c0.172-0.294,0.48-0.48,0.819-0.496     c0.359-0.01,0.665,0.144,0.86,0.421l4.127,5.821c0.319,0.45,0.214,1.075-0.237,1.394     C192.108,63.658,191.907,63.718,191.707,63.718z"/>
		</g>
	</g>
	<g>
		<g>
			<path class="st6" d="M184.186,80.982c-0.828,0-1.5-0.671-1.5-1.5V69.104l-4.295-0.87c-0.452-0.092-0.837-0.386-1.044-0.799     l-3.946-7.889c-0.37-0.741-0.07-1.642,0.671-2.012c0.739-0.369,1.643-0.071,2.013,0.67l3.619,7.235l4.482,0.908l4.482-0.908     l3.619-7.235c0.371-0.74,1.275-1.04,2.013-0.67c0.741,0.371,1.041,1.271,0.671,2.012l-3.946,7.889     c-0.207,0.413-0.592,0.708-1.044,0.799l-4.295,0.87v10.379C185.686,80.311,185.014,80.982,184.186,80.982z"/>
		</g>
	</g>
	<g>
		<g>
			<g>
				<ellipse class="st10" cx="215.895" cy="93.492" rx="24.85" ry="25"/>
			</g>
		</g>
		<g>
			<g>
				<path class="st11" d="M199.228,101.726c0-13.807,11.126-25,24.85-25c4.765,0,9.215,1.352,12.997,3.691      c-4.372-7.153-12.222-11.925-21.181-11.925c-13.725,0-24.85,11.193-24.85,25c0,9.013,4.743,16.91,11.853,21.309      C200.572,110.997,199.228,106.52,199.228,101.726z"/>
			</g>
		</g>
		<g>
			<g>
				<path class="st12" d="M200.366,109.114c-4.147-4.172-6.43-9.718-6.431-15.618c0-12.183,9.853-22.095,21.962-22.095      c5.865,0,11.378,2.298,15.525,6.469c4.147,4.171,6.43,9.718,6.43,15.618c0,12.183-9.852,22.094-21.962,22.095      C210.026,115.583,204.513,113.286,200.366,109.114z"/>
			</g>
		</g>
		<g>
			<g>
				<path class="st2" d="M231.391,77.839c-4.143-4.151-9.643-6.438-15.492-6.438c-12.11,0-21.962,9.912-21.962,22.095      c0,5.885,2.273,11.418,6.4,15.586c-0.712-2.327-1.107-4.794-1.107-7.356c0-13.807,11.126-25,24.85-25      C226.626,76.726,229.078,77.123,231.391,77.839z"/>
			</g>
		</g>
	</g>
	<g>
		<g>
			<g>
				<path class="st10" d="M211.142,106.772V99.91c0-1.105-0.89-2-1.988-2h-6.56c-1.098,0-1.988-0.895-1.988-2v-5.037      c0-1.105,0.89-2,1.988-2h6.56c1.098,0,1.988-0.895,1.988-2v-6.862c0-1.105,0.89-2,1.988-2h5.529c1.098,0,1.988,0.895,1.988,2      v6.862c0,1.105,0.89,2,1.988,2h6.56c1.098,0,1.988,0.895,1.988,2v5.037c0,1.105-0.89,2-1.988,2h-6.56      c-1.098,0-1.988,0.895-1.988,2v6.862c0,1.105-0.89,2-1.988,2h-5.529C212.032,108.772,211.142,107.877,211.142,106.772z"/>
			</g>
		</g>
	</g>
	<g>
		<g>
			<path class="st1" d="M150.792,41.534c-0.004-0.249-0.011-0.498-0.021-0.746c0.147-1.15,1.096-2.038,2.248-2.038h7.53     c1.122,0,2.112,0.808,2.322,1.909c0.004,0.249,0.011,0.498,0.021,0.746c-0.146,1.15-1.096,2.038-2.248,2.038h-7.53     C151.992,43.443,151.002,42.635,150.792,41.534z"/>
		</g>
	</g>
	<g>
		<g>
			<path class="st1" d="M163.062,19.559c0.168-0.179,0.333-0.36,0.495-0.543c0.89-0.706,2.169-0.64,2.984,0.202l5.324,5.502     c0.794,0.82,0.941,2.114,0.336,3.047c-0.168,0.179-0.333,0.36-0.495,0.543c-0.89,0.706-2.169,0.641-2.984-0.201l-5.324-5.502     C162.604,21.786,162.457,20.491,163.062,19.559z"/>
		</g>
	</g>
	<g>
		<g>
			<path class="st1" d="M218.343,41.5c0.004-0.249,0.011-0.498,0.021-0.746c-0.147-1.15-1.096-2.038-2.248-2.038h-7.53     c-1.122,0-2.112,0.808-2.322,1.909c-0.004,0.249-0.011,0.498-0.021,0.746c0.146,1.15,1.096,2.038,2.248,2.038h7.53     C217.143,43.409,218.133,42.602,218.343,41.5z"/>
		</g>
	</g>
	<g>
		<g>
			<path class="st1" d="M206.073,19.525c-0.168-0.179-0.333-0.36-0.495-0.543c-0.89-0.706-2.169-0.64-2.984,0.202l-5.324,5.502     c-0.794,0.82-0.941,2.114-0.336,3.047c0.168,0.179,0.333,0.36,0.495,0.543c0.89,0.706,2.169,0.641,2.984-0.201l5.324-5.502     C206.531,21.752,206.678,20.457,206.073,19.525z"/>
		</g>
	</g>
	<g>
		<g>
			<path class="st1" d="M185.372,10.8c-0.241-0.004-0.482-0.011-0.722-0.022c-1.113,0.151-1.972,1.132-1.972,2.323v7.781     c0,1.16,0.781,2.183,1.847,2.4c0.241,0.004,0.482,0.011,0.721,0.022c1.113-0.151,1.972-1.132,1.972-2.323v-7.781     C187.22,12.04,186.438,11.017,185.372,10.8z"/>
		</g>
	</g>
	<g>
		<g>
			<path class="st10" d="M192.361,106.241c0.002-0.016,0.004-0.032,0.006-0.048c-26.088-0.992-46.937-22.569-46.937-49.057v-2.455     c0-27.12,21.854-49.105,48.811-49.105h-28c-26.958,0-48.811,21.985-48.811,49.105v2.455c0,26.488,20.849,48.065,46.937,49.057     c-0.688,6.741-3.334,15.181-11.631,19.896c-2.197,1.249-1.379,4.61,1.144,4.615c11.151,0.021,27.425-3.787,34.143-24.463H192.361     z"/>
		</g>
	</g>
	<g>
		<g>
			<circle class="st13" cx="53.522" cy="41.063" r="9"/>
		</g>
	</g>
</g>
</svg>
