<?xml version="1.0" encoding="utf-8"?>
<!-- Generator: Adobe Illustrator 22.1.0, SVG Export Plug-In . SVG Version: 6.00 Build 0)  -->
<svg xmlns="http://www.w3.org/2000/svg" xmlns:xlink="http://www.w3.org/1999/xlink" version="1.1" id="Layer_1" x="0px" y="0px" viewBox="0 0 256 256" style="enable-background:new 0 0 256 256;" xml:space="preserve" width="512" height="512">
<style type="text/css">
	.st0{fill:#FFC34C;}
	.st1{fill:#F9BB32;}
	.st2{fill:#FFDF74;}
	.st3{fill:#BF6C0D;}
	.st4{fill:#A56021;}
	.st5{fill:#FFF4C1;}
	.st6{fill:#CCC033;}
	.st7{fill:#99AF17;}
	.st8{fill:#FCE575;}
	.st9{fill:#DB9C2E;}
	.st10{fill:#FFEACF;}
	.st11{fill:#FFD59A;}
	.st12{fill:#8C4C17;}
	.st13{fill:#FF9079;}
	.st14{fill:#FF624B;}
	.st15{fill:#E58D23;}
	.st16{fill:#FFB74B;}
	.st17{fill:#FF4B34;}
	.st18{fill:#FCDA4F;}
	.st19{fill:#FFD551;}
	.st20{fill:#EACF32;}
	.st21{fill:#FFA730;}
	.st22{fill:#FCF9DE;}
</style>
<g>
	<g>
		<g>
			<path class="st18" d="M227,8.491H28c-5.523,0-10,4.477-10,10v44c0,5.523,4.477,10,10,10h10.853l14.379,27.161     c0.751,1.419,2.784,1.419,3.535,0l14.379-27.161h44.735l9.35,17.661c0.751,1.419,2.784,1.419,3.535,0l9.35-17.661h45.735     l14.379,27.161c0.751,1.419,2.784,1.419,3.535,0l14.379-27.161H227c5.523,0,10-4.477,10-10v-44     C237,12.968,232.523,8.491,227,8.491z"/>
		</g>
	</g>
	<g>
		<g>
			<path class="st8" d="M229,65.491c-1.657,0-3-1.343-3-3v-44c0-1.657,1.343-3,3-3s3,1.343,3,3v44     C232,64.148,230.657,65.491,229,65.491z"/>
		</g>
	</g>
	<g>
		<g>
			<path class="st6" d="M249.018,247.509h-96.772v0c0-23.39,18.961-42.351,42.351-42.351h12.071     C230.057,205.158,249.018,224.119,249.018,247.509L249.018,247.509z"/>
		</g>
	</g>
	<g>
		<g>
			<path class="st7" d="M206.667,205.158h-12.071c-10.511,0-20.121,3.838-27.524,10.178c-0.03,0.026-0.059,0.052-0.089,0.077     c-1.021,0.879-1.999,1.805-2.932,2.777c-0.08,0.083-0.16,0.167-0.239,0.251c-0.862,0.913-1.683,1.863-2.462,2.849     c-0.111,0.14-0.222,0.279-0.331,0.421c-0.223,0.29-0.443,0.582-0.658,0.877c-0.126,0.173-0.249,0.349-0.373,0.525     c-0.329,0.466-0.649,0.939-0.96,1.419c-0.147,0.228-0.296,0.454-0.439,0.685c-0.165,0.265-0.324,0.533-0.483,0.802     c-0.15,0.255-0.297,0.512-0.443,0.77c-0.14,0.249-0.282,0.498-0.418,0.75c-0.248,0.462-0.487,0.93-0.718,1.402     c-0.11,0.226-0.215,0.455-0.321,0.683c-0.153,0.328-0.303,0.658-0.448,0.991c-0.099,0.227-0.198,0.454-0.293,0.683     c-0.207,0.498-0.406,1-0.595,1.508c-0.061,0.164-0.116,0.329-0.175,0.494c-0.155,0.435-0.304,0.874-0.445,1.315     c-0.065,0.205-0.129,0.41-0.191,0.616c-0.138,0.457-0.269,0.917-0.392,1.379c-0.036,0.134-0.075,0.266-0.109,0.401     c-0.149,0.583-0.283,1.171-0.407,1.763c-0.037,0.177-0.071,0.355-0.106,0.533c-0.093,0.472-0.177,0.947-0.254,1.424     c-0.026,0.163-0.055,0.326-0.079,0.49c-0.092,0.615-0.171,1.234-0.236,1.858c-0.013,0.127-0.022,0.255-0.034,0.382     c-0.049,0.521-0.089,1.046-0.12,1.572c-0.01,0.177-0.02,0.355-0.029,0.533c-0.029,0.645-0.049,1.291-0.049,1.943h20.676h18.627     v-2.033c0-7.893-1.929-15.333-5.336-21.881c7.508-6.794,17.459-10.936,28.384-10.936h12.071c1.475,0,2.932,0.076,4.369,0.223     C224.143,208.022,215.742,205.158,206.667,205.158z"/>
		</g>
	</g>
	<g>
		<g>
			<path class="st12" d="M176.645,170.529h8.305v-35.026c0-4.587-3.718-8.305-8.305-8.305h0c-4.587,0-8.305,3.718-8.305,8.305     v26.721C168.34,166.811,172.059,170.529,176.645,170.529z"/>
		</g>
	</g>
	<g>
		<g>
			<path class="st12" d="M226.734,127.214h-4.23c-3.419,0-6.19,2.771-6.19,6.19v5.39c6.699,4.983,11.039,12.959,11.039,21.95v9.77     c3.128-0.311,5.571-2.949,5.571-6.159v-30.951C232.924,129.986,230.153,127.214,226.734,127.214z"/>
		</g>
	</g>
	<g>
		<g>
			<circle class="st10" cx="227.972" cy="163.093" r="8.843"/>
		</g>
	</g>
	<g>
		<g>
			<circle class="st11" cx="172.261" cy="163.093" r="8.843"/>
		</g>
	</g>
	<g>
		<g>
			<path class="st10" d="M200.632,222.955L200.632,222.955c-7.407,0-13.412-6.005-13.412-13.412V177.56h26.824v31.982     C214.044,216.95,208.039,222.955,200.632,222.955z"/>
		</g>
	</g>
	<g>
		<g>
			<path class="st11" d="M196.505,209.543V177.56h-9.285v31.982c0,7.407,6.005,13.412,13.412,13.412l0,0     c1.632,0,3.196-0.292,4.643-0.826C200.156,220.24,196.505,215.318,196.505,209.543z"/>
		</g>
	</g>
	<g>
		<g>
			<path class="st10" d="M200.632,194.574L200.632,194.574c-15.099,0-27.34-12.24-27.34-27.34v-13.918     c0-15.099,12.24-27.34,27.34-27.34h0c15.099,0,27.34,12.24,27.34,27.34v13.918C227.972,182.333,215.731,194.574,200.632,194.574z     "/>
		</g>
	</g>
	<g>
		<g>
			<path class="st0" d="M103.754,247.509H6.982v0c0-23.39,18.961-42.351,42.351-42.351h12.071     C84.793,205.158,103.754,224.119,103.754,247.509L103.754,247.509z"/>
		</g>
	</g>
	<g>
		<g>
			<path class="st21" d="M64.333,210.158h12.071c1.924,0,3.814,0.14,5.669,0.389c-6.115-3.427-13.161-5.389-20.669-5.389H49.333     c-23.39,0-42.351,18.961-42.351,42.351l0,0h15.304C24.761,226.477,42.636,210.158,64.333,210.158z"/>
		</g>
	</g>
	<g>
		<g>
			<path class="st11" d="M182.887,163.792v-13.571c0-1.035,0.058-2.057,0.17-3.062c0.174-1.556,1.508-2.724,3.074-2.724h40.364     c-3.687-10.74-13.873-18.459-25.864-18.459c-1.174,0-2.329,0.076-3.464,0.22c0.002-0.001,0.003-0.002,0.005-0.003     c-0.088,0.011-0.173,0.027-0.261,0.039c-0.288,0.039-0.576,0.081-0.861,0.129c-0.138,0.023-0.275,0.05-0.413,0.075     c-0.253,0.047-0.504,0.096-0.754,0.149c-0.145,0.031-0.289,0.064-0.433,0.097c-0.243,0.056-0.485,0.116-0.726,0.179     c-0.141,0.037-0.282,0.073-0.422,0.112c-0.25,0.069-0.497,0.144-0.744,0.22c-0.126,0.039-0.252,0.076-0.377,0.116     c-0.296,0.096-0.588,0.198-0.879,0.304c-0.072,0.026-0.145,0.05-0.217,0.076c-0.362,0.135-0.72,0.277-1.075,0.427     c-0.092,0.039-0.183,0.082-0.275,0.122c-0.259,0.113-0.518,0.228-0.773,0.348c-0.128,0.06-0.254,0.124-0.38,0.186     c-0.217,0.107-0.433,0.215-0.647,0.327c-0.135,0.071-0.27,0.144-0.404,0.217c-0.203,0.111-0.404,0.224-0.604,0.34     c-0.134,0.078-0.267,0.156-0.4,0.236c-0.2,0.121-0.398,0.246-0.595,0.371c-0.125,0.08-0.25,0.158-0.373,0.24     c-0.217,0.144-0.431,0.292-0.643,0.442c-0.098,0.069-0.197,0.135-0.294,0.205c-0.301,0.218-0.598,0.441-0.889,0.671     c-0.091,0.071-0.178,0.146-0.268,0.219c-0.203,0.164-0.406,0.33-0.605,0.5c-0.119,0.102-0.234,0.206-0.351,0.31     c-0.166,0.147-0.331,0.294-0.492,0.445c-0.123,0.114-0.243,0.23-0.363,0.346c-0.152,0.146-0.302,0.294-0.451,0.444     c-0.12,0.121-0.239,0.243-0.357,0.366c-0.145,0.152-0.287,0.307-0.429,0.462c-0.114,0.125-0.228,0.249-0.34,0.376     c-0.146,0.166-0.287,0.335-0.429,0.504c-0.101,0.121-0.204,0.24-0.303,0.362c-0.207,0.257-0.409,0.518-0.607,0.783     c-0.103,0.137-0.202,0.277-0.302,0.416c-0.139,0.192-0.277,0.384-0.411,0.58c-0.098,0.144-0.192,0.29-0.287,0.436     c-0.111,0.17-0.223,0.341-0.33,0.514c-0.096,0.155-0.19,0.312-0.283,0.468c-0.1,0.169-0.2,0.339-0.297,0.51     c-0.091,0.161-0.181,0.323-0.269,0.486c-0.093,0.172-0.183,0.346-0.273,0.521c-0.084,0.165-0.169,0.329-0.25,0.496     c-0.088,0.181-0.172,0.365-0.256,0.548c-0.075,0.163-0.152,0.325-0.224,0.49c-0.097,0.222-0.188,0.448-0.279,0.673     c-0.099,0.245-0.195,0.493-0.287,0.742c-0.076,0.204-0.153,0.407-0.224,0.613h0.002c-0.956,2.785-1.478,5.771-1.478,8.881v13.588     c0,15.041,12.01,27.513,27.05,27.669c4.835,0.05,9.385-1.156,13.343-3.311c-1.194,0.151-2.411,0.225-3.648,0.217     C194.956,191.376,182.887,178.875,182.887,163.792z"/>
		</g>
	</g>
	<g>
		<g>
			<path class="st12" d="M31.381,170.529h8.305v-35.026c0-4.587-3.718-8.305-8.305-8.305h0c-4.587,0-8.305,3.718-8.305,8.305v26.721     C23.076,166.811,26.794,170.529,31.381,170.529z"/>
		</g>
	</g>
	<g>
		<g>
			<path class="st12" d="M81.47,127.214h-4.23c-3.419,0-6.19,2.771-6.19,6.19v5.39c6.699,4.983,11.039,12.959,11.039,21.95v9.77     c3.128-0.311,5.571-2.949,5.571-6.159v-30.951C87.66,129.986,84.888,127.214,81.47,127.214z"/>
		</g>
	</g>
	<g>
		<g>
			<circle class="st10" cx="82.708" cy="163.093" r="8.843"/>
		</g>
	</g>
	<g>
		<g>
			<circle class="st11" cx="26.996" cy="163.093" r="8.843"/>
		</g>
	</g>
	<g>
		<g>
			<path class="st10" d="M55.368,222.955L55.368,222.955c-7.407,0-13.412-6.005-13.412-13.412V177.56H68.78v31.982     C68.78,216.95,62.775,222.955,55.368,222.955z"/>
		</g>
	</g>
	<g>
		<g>
			<path class="st11" d="M51.241,209.543V177.56h-9.285v31.982c0,7.407,6.005,13.412,13.412,13.412l0,0     c1.632,0,3.196-0.292,4.643-0.826C54.891,220.24,51.241,215.318,51.241,209.543z"/>
		</g>
	</g>
	<g>
		<g>
			<path class="st10" d="M55.368,194.574L55.368,194.574c-15.099,0-27.34-12.24-27.34-27.34v-13.918     c0-15.099,12.24-27.34,27.34-27.34h0c15.099,0,27.34,12.24,27.34,27.34v13.918C82.708,182.333,70.467,194.574,55.368,194.574z"/>
		</g>
	</g>
	<g>
		<g>
			<path class="st11" d="M37.623,163.792v-13.571c0-1.035,0.058-2.057,0.17-3.062c0.174-1.556,1.508-2.724,3.074-2.724h40.364     c-3.687-10.74-13.873-18.459-25.864-18.459c-1.174,0-2.329,0.076-3.464,0.22c0.002-0.001,0.003-0.002,0.005-0.003     c-0.088,0.011-0.173,0.027-0.261,0.039c-0.288,0.039-0.576,0.081-0.861,0.129c-0.138,0.023-0.275,0.05-0.413,0.075     c-0.253,0.047-0.504,0.096-0.754,0.149c-0.145,0.031-0.289,0.064-0.433,0.097c-0.243,0.056-0.485,0.116-0.726,0.179     c-0.141,0.037-0.282,0.073-0.422,0.112c-0.25,0.069-0.497,0.144-0.744,0.22c-0.126,0.039-0.252,0.076-0.377,0.116     c-0.296,0.096-0.588,0.198-0.879,0.304c-0.072,0.026-0.145,0.05-0.217,0.076c-0.362,0.135-0.72,0.277-1.075,0.427     c-0.092,0.039-0.183,0.082-0.275,0.122c-0.259,0.113-0.518,0.228-0.773,0.348c-0.128,0.06-0.254,0.124-0.38,0.186     c-0.217,0.107-0.433,0.215-0.647,0.327c-0.135,0.071-0.27,0.144-0.404,0.217c-0.203,0.111-0.404,0.224-0.604,0.34     c-0.134,0.078-0.267,0.156-0.4,0.236c-0.2,0.121-0.398,0.246-0.595,0.371c-0.125,0.08-0.25,0.158-0.373,0.24     c-0.217,0.144-0.431,0.292-0.643,0.442c-0.098,0.069-0.197,0.135-0.294,0.205c-0.301,0.218-0.598,0.441-0.889,0.671     c-0.091,0.071-0.178,0.146-0.268,0.219c-0.203,0.164-0.406,0.33-0.605,0.5c-0.119,0.102-0.234,0.206-0.351,0.31     c-0.166,0.147-0.331,0.294-0.492,0.445c-0.123,0.114-0.243,0.23-0.363,0.346c-0.152,0.146-0.302,0.294-0.451,0.444     c-0.12,0.121-0.239,0.243-0.357,0.366c-0.145,0.152-0.287,0.307-0.429,0.462c-0.114,0.125-0.228,0.249-0.34,0.376     c-0.146,0.166-0.287,0.335-0.429,0.504c-0.101,0.121-0.204,0.24-0.303,0.362c-0.207,0.257-0.409,0.518-0.607,0.783     c-0.103,0.137-0.202,0.277-0.302,0.416c-0.139,0.192-0.277,0.384-0.411,0.58c-0.098,0.144-0.192,0.29-0.287,0.436     c-0.111,0.17-0.223,0.341-0.33,0.514c-0.096,0.155-0.19,0.312-0.283,0.468c-0.101,0.169-0.2,0.339-0.297,0.51     c-0.091,0.161-0.181,0.323-0.269,0.486c-0.093,0.172-0.183,0.346-0.273,0.521c-0.084,0.165-0.169,0.329-0.25,0.496     c-0.088,0.181-0.172,0.365-0.256,0.548c-0.075,0.163-0.152,0.325-0.224,0.49c-0.097,0.222-0.188,0.448-0.279,0.673     c-0.099,0.245-0.195,0.493-0.287,0.742c-0.076,0.204-0.153,0.407-0.224,0.613h0.002c-0.956,2.785-1.478,5.771-1.478,8.881v13.588     c0,15.041,12.01,27.513,27.05,27.669c4.835,0.05,9.385-1.156,13.343-3.311c-1.194,0.151-2.411,0.225-3.648,0.217     C49.691,191.376,37.623,178.875,37.623,163.792z"/>
		</g>
	</g>
	<g>
		<g>
			<path class="st4" d="M74.23,140.911H35.268c-3.998,0-7.24-3.241-7.24-7.24v0c0-9.667,7.837-17.504,17.504-17.504h18.433     c9.667,0,17.504,7.837,17.504,17.504v0C81.47,137.67,78.228,140.911,74.23,140.911z"/>
		</g>
	</g>
	<g>
		<g>
			<g>
				<circle class="st4" cx="39.893" cy="160.275" r="3.405"/>
			</g>
		</g>
		<g>
			<g>
				<circle class="st4" cx="70.843" cy="160.275" r="3.405"/>
			</g>
		</g>
	</g>
	<g>
		<g>
			<path class="st12" d="M158.485,106.813h-4.947c-3.998,0-7.24,3.242-7.24,7.24v6.304c7.835,5.828,12.911,15.157,12.911,25.673     v11.427c3.658-0.363,6.516-3.449,6.516-7.203v-36.2C165.725,110.055,162.484,106.813,158.485,106.813z"/>
		</g>
	</g>
	<g>
		<g>
			<path class="st14" d="M184.549,247.509H71.365v-2.033c0-26.234,21.266-47.5,47.5-47.5h18.184c26.234,0,47.5,21.266,47.5,47.5     V247.509z"/>
		</g>
	</g>
	<g>
		<g>
			<path class="st13" d="M175.253,245.763c-0.079,0-0.158-0.003-0.238-0.01c-1.651-0.13-2.886-1.574-2.756-3.226     c1.108-14.071-6.705-20.106-6.784-20.165c-1.325-0.995-1.593-2.875-0.599-4.2c0.994-1.326,2.875-1.593,4.2-0.599     c0.431,0.323,10.528,8.111,9.165,25.435C178.117,244.57,176.804,245.763,175.253,245.763z"/>
		</g>
	</g>
	<g>
		<g>
			<path class="st17" d="M138.865,205.476h18.184c2.119,0,4.204,0.141,6.25,0.41c-7.52-4.997-16.544-7.91-26.25-7.91h-18.184     c-26.234,0-47.5,21.266-47.5,47.5v2.033H91.68C94.392,223.851,114.481,205.476,138.865,205.476z"/>
		</g>
	</g>
	<g>
		<g>
			<path class="st12" d="M99.902,157.474h9.714v-40.966c0-5.365-4.349-9.714-9.714-9.714h0c-5.365,0-9.714,4.349-9.714,9.714v31.252     C90.189,153.125,94.538,157.474,99.902,157.474z"/>
		</g>
	</g>
	<g>
		<g>
			<circle class="st10" cx="159.933" cy="148.777" r="10.342"/>
		</g>
	</g>
	<g>
		<g>
			<circle class="st11" cx="94.774" cy="148.777" r="10.342"/>
		</g>
	</g>
	<g>
		<g>
			<path class="st10" d="M127.957,218.79L127.957,218.79c-8.663,0-15.687-7.023-15.687-15.686v-37.406h31.373v37.406     C143.643,211.767,136.62,218.79,127.957,218.79z"/>
		</g>
	</g>
	<g>
		<g>
			<path class="st11" d="M123.13,203.104v-37.406h-10.86v37.406c0,8.663,7.023,15.687,15.687,15.687l0,0     c1.909,0,3.738-0.342,5.43-0.966C127.4,215.615,123.13,209.858,123.13,203.104z"/>
		</g>
	</g>
	<g>
		<g>
			<path class="st10" d="M127.957,185.597L127.957,185.597c-17.66,0-31.976-14.316-31.976-31.976v-16.279     c0-17.66,14.316-31.976,31.976-31.976h0c17.66,0,31.976,14.316,31.976,31.976v16.279     C159.933,171.28,145.617,185.597,127.957,185.597z"/>
		</g>
	</g>
	<g>
		<g>
			<path class="st11" d="M107.203,149.594v-15.873c0-1.211,0.068-2.406,0.199-3.581c0.204-1.82,1.764-3.186,3.595-3.186h47.21     c-4.312-12.561-16.226-21.589-30.25-21.589c-1.373,0-2.725,0.089-4.052,0.257c0.002-0.001,0.004-0.002,0.006-0.003     c-0.102,0.013-0.203,0.032-0.305,0.046c-0.337,0.046-0.673,0.095-1.007,0.151c-0.162,0.027-0.322,0.058-0.483,0.088     c-0.295,0.054-0.59,0.112-0.882,0.174c-0.17,0.036-0.338,0.075-0.507,0.113c-0.285,0.066-0.568,0.136-0.849,0.209     c-0.165,0.043-0.33,0.086-0.494,0.131c-0.292,0.081-0.581,0.168-0.87,0.257c-0.147,0.045-0.295,0.089-0.441,0.136     c-0.346,0.112-0.688,0.232-1.028,0.356c-0.084,0.031-0.17,0.058-0.253,0.089c-0.423,0.158-0.842,0.325-1.257,0.5     c-0.108,0.046-0.214,0.095-0.322,0.142c-0.303,0.132-0.606,0.267-0.904,0.408c-0.149,0.071-0.297,0.145-0.445,0.218     c-0.254,0.125-0.506,0.252-0.756,0.383c-0.158,0.083-0.315,0.168-0.472,0.254c-0.237,0.13-0.472,0.262-0.706,0.398     c-0.157,0.091-0.313,0.182-0.468,0.276c-0.234,0.142-0.466,0.287-0.696,0.434c-0.146,0.093-0.292,0.185-0.436,0.28     c-0.254,0.168-0.504,0.342-0.752,0.517c-0.114,0.081-0.231,0.158-0.344,0.24c-0.352,0.255-0.699,0.516-1.04,0.785     c-0.106,0.084-0.208,0.171-0.313,0.256c-0.238,0.192-0.475,0.386-0.707,0.584c-0.139,0.119-0.274,0.241-0.411,0.362     c-0.194,0.172-0.387,0.344-0.576,0.52c-0.143,0.133-0.284,0.269-0.425,0.405c-0.178,0.171-0.353,0.344-0.527,0.52     c-0.14,0.142-0.28,0.284-0.417,0.429c-0.17,0.178-0.336,0.359-0.502,0.541c-0.133,0.146-0.267,0.291-0.397,0.44     c-0.17,0.194-0.336,0.392-0.501,0.59c-0.118,0.141-0.238,0.28-0.354,0.423c-0.242,0.3-0.479,0.606-0.71,0.915     c-0.12,0.16-0.236,0.324-0.353,0.487c-0.162,0.225-0.324,0.45-0.481,0.679c-0.115,0.168-0.224,0.34-0.336,0.51     c-0.13,0.199-0.26,0.398-0.386,0.601c-0.113,0.181-0.222,0.364-0.331,0.548c-0.118,0.197-0.233,0.396-0.347,0.596     c-0.107,0.189-0.212,0.378-0.315,0.569c-0.109,0.202-0.215,0.405-0.319,0.609c-0.099,0.193-0.198,0.385-0.292,0.58     c-0.103,0.212-0.201,0.427-0.3,0.641c-0.088,0.191-0.178,0.38-0.262,0.573c-0.113,0.26-0.219,0.524-0.326,0.787     c-0.116,0.287-0.228,0.576-0.335,0.867c-0.088,0.238-0.179,0.476-0.262,0.717h0.003c-1.118,3.257-1.729,6.75-1.729,10.387v15.893     c0,17.592,14.047,32.179,31.638,32.361c5.656,0.059,10.977-1.352,15.606-3.872c-1.396,0.176-2.82,0.263-4.266,0.253     C121.318,181.856,107.203,167.235,107.203,149.594z"/>
		</g>
	</g>
	<g>
		<g>
			<path class="st4" d="M144.015,122.749H97.791c-7.992,0-14.47-6.479-14.47-14.47v0c0-7.992,6.479-14.47,14.47-14.47h46.224     c7.992,0,14.47,6.479,14.47,14.47v0C158.485,116.27,152.007,122.749,144.015,122.749z"/>
		</g>
	</g>
	<g>
		<g>
			<g>
				<circle class="st4" cx="109.857" cy="145.481" r="3.982"/>
			</g>
		</g>
		<g>
			<g>
				<circle class="st4" cx="146.057" cy="145.481" r="3.982"/>
			</g>
		</g>
	</g>
	<g>
		<g>
			<g>
				<circle class="st4" cx="185.157" cy="160.275" r="3.405"/>
			</g>
		</g>
		<g>
			<g>
				<circle class="st4" cx="216.107" cy="160.275" r="3.405"/>
			</g>
		</g>
	</g>
	<g>
		<g>
			<path class="st4" d="M219.494,140.911h-38.962c-3.998,0-7.24-3.241-7.24-7.24v0c0-9.667,7.837-17.504,17.504-17.504h18.433     c9.667,0,17.504,7.837,17.504,17.504v0C226.734,137.67,223.492,140.911,219.494,140.911z"/>
		</g>
	</g>
	<g>
		<g>
			<path class="st12" d="M98.321,108.278L98.321,108.278c0-7.992,6.479-14.47,14.47-14.47h-15c-7.992,0-14.47,6.479-14.47,14.47l0,0     c0,7.992,6.479,14.47,14.47,14.47h15C104.799,122.749,98.321,116.27,98.321,108.278z"/>
		</g>
	</g>
	<g>
		<g>
			<path class="st12" d="M183.292,133.671L183.292,133.671c0-9.667,7.837-17.504,17.504-17.504h-10     c-9.667,0-17.504,7.837-17.504,17.504l0,0c0,3.999,3.241,7.24,7.24,7.24h10C186.534,140.911,183.292,137.67,183.292,133.671z"/>
		</g>
	</g>
	<g>
		<g>
			<path class="st12" d="M39.528,133.671L39.528,133.671c0-9.667,7.837-17.504,17.504-17.504h-11.5     c-9.667,0-17.504,7.837-17.504,17.504l0,0c0,3.999,3.241,7.24,7.24,7.24h11.5C42.77,140.911,39.528,137.67,39.528,133.671z"/>
		</g>
	</g>
	<g>
		<g>
			<circle class="st17" cx="107.096" cy="235.86" r="9"/>
		</g>
	</g>
	<g>
		<g>
			<g>
				<path class="st5" d="M100.292,35.851c-0.003-0.193-0.008-0.386-0.017-0.578c0.116-0.891,0.867-1.58,1.78-1.58h5.96      c0.888,0,1.672,0.626,1.838,1.48c0.003,0.193,0.008,0.386,0.017,0.578c-0.116,0.892-0.867,1.58-1.779,1.58h-5.96      C101.242,37.331,100.459,36.705,100.292,35.851z"/>
			</g>
		</g>
		<g>
			<g>
				<path class="st5" d="M110.004,18.812c0.133-0.139,0.264-0.279,0.392-0.421c0.705-0.547,1.717-0.497,2.362,0.156l4.214,4.266      c0.628,0.636,0.745,1.639,0.266,2.362c-0.133,0.139-0.264,0.279-0.392,0.421c-0.705,0.547-1.717,0.497-2.362-0.156l-4.214-4.266      C109.642,20.538,109.525,19.535,110.004,18.812z"/>
			</g>
		</g>
		<g>
			<g>
				<path class="st5" d="M153.761,35.825c0.003-0.193,0.008-0.386,0.017-0.578c-0.116-0.891-0.867-1.58-1.78-1.58h-5.96      c-0.888,0-1.672,0.626-1.838,1.48c-0.003,0.193-0.008,0.386-0.017,0.578c0.116,0.892,0.867,1.58,1.779,1.58h5.96      C152.811,37.305,153.595,36.679,153.761,35.825z"/>
			</g>
		</g>
		<g>
			<g>
				<path class="st5" d="M144.049,18.785c-0.133-0.139-0.264-0.279-0.392-0.421c-0.705-0.547-1.717-0.497-2.362,0.156l-4.214,4.266      c-0.628,0.636-0.745,1.639-0.266,2.362c0.133,0.139,0.264,0.279,0.392,0.421c0.705,0.547,1.717,0.497,2.362-0.156l4.214-4.266      C144.411,20.512,144.528,19.508,144.049,18.785z"/>
			</g>
		</g>
		<g>
			<g>
				<path class="st5" d="M142.281,41.992c0-8.698-6.965-15.749-15.557-15.749s-15.557,7.051-15.557,15.749      c0,3.772,1.311,7.233,3.496,9.945c0.893,1.551,4.149,7.553,4.295,12.871v4.13h15.531v-4.031      c0.169-6.166,4.522-13.257,4.522-13.257h-0.004C141.057,48.983,142.281,45.633,142.281,41.992z"/>
			</g>
		</g>
		<g>
			<g>
				<path class="st5" d="M127.664,12.02c-0.191-0.003-0.381-0.008-0.571-0.017c-0.881,0.117-1.561,0.878-1.561,1.802v6.034      c0,0.899,0.619,1.692,1.462,1.861c0.191,0.003,0.381,0.008,0.571,0.017c0.881-0.117,1.561-0.878,1.561-1.801v-6.034      C129.126,12.981,128.507,12.188,127.664,12.02z"/>
			</g>
		</g>
		<g>
			<g>
				<path class="st8" d="M124.2,51.937c-2.185-2.712-3.496-6.173-3.496-9.945c0-7.013,4.531-12.949,10.789-14.988      c-1.503-0.49-3.104-0.761-4.768-0.761c-8.592,0-15.557,7.051-15.557,15.749c0,3.772,1.311,7.233,3.496,9.945      c0.893,1.551,4.149,7.553,4.295,12.871v4.13h9.536v-4.13C128.349,59.49,125.093,53.488,124.2,51.937z"/>
			</g>
		</g>
		<g>
			<g>
				<path class="st0" d="M127.101,81.789h-0.149c-3.963,0-7.176-3.213-7.176-7.176V72.03h14.5v2.583      C134.277,78.576,131.064,81.789,127.101,81.789z"/>
			</g>
		</g>
		<g>
			<g>
				<path class="st1" d="M124.544,74.449V72.03h-4.768v2.419c0,4.054,3.246,7.34,7.25,7.34c0.837,0,1.636-0.151,2.384-0.415      C126.579,80.375,124.544,77.656,124.544,74.449z"/>
			</g>
		</g>
		<g>
			<g>
				<path class="st0" d="M132.862,73.573h-11.67c-1.588,0-2.875-1.287-2.875-2.875v-0.82c0-1.588,1.287-2.875,2.875-2.875h11.67      c1.588,0,2.875,1.287,2.875,2.875v0.82C135.736,72.286,134.449,73.573,132.862,73.573z"/>
			</g>
		</g>
		<g>
			<g>
				<path class="st1" d="M123.085,70.68v-0.785c0-1.597,1.279-2.892,2.857-2.892h-4.768c-1.578,0-2.857,1.295-2.857,2.892v0.785      c0,1.597,1.279,2.892,2.857,2.892h4.768C124.364,73.573,123.085,72.278,123.085,70.68z"/>
			</g>
		</g>
		<g>
			<g>
				<path class="st0" d="M134.22,67.988h-14.386c-1.588,0-2.875-1.287-2.875-2.875v-0.82c0-1.588,1.287-2.875,2.875-2.875h14.386      c1.588,0,2.875,1.287,2.875,2.875v0.82C137.094,66.701,135.807,67.988,134.22,67.988z"/>
			</g>
		</g>
		<g>
			<g>
				<path class="st1" d="M121.727,65.095v-0.784c0-1.597,1.279-2.892,2.857-2.892h-4.768c-1.578,0-2.857,1.295-2.857,2.892v0.784      c0,1.597,1.279,2.892,2.857,2.892h4.768C123.006,67.988,121.727,66.693,121.727,65.095z"/>
			</g>
		</g>
		<g>
			<g>
				<path class="st18" d="M132.679,53.277c-0.31,0-0.615-0.144-0.811-0.414l-2.376-3.282l-1.908,3.207      c-0.189,0.318-0.537,0.504-0.908,0.488c-0.37-0.018-0.699-0.239-0.856-0.574l-1.455-3.106l-2.831,3.329      c-0.357,0.422-0.991,0.471-1.409,0.114c-0.421-0.358-0.472-0.989-0.114-1.41l3.838-4.514c0.221-0.259,0.563-0.387,0.895-0.344      c0.337,0.045,0.628,0.259,0.772,0.567l1.315,2.806l1.721-2.893c0.172-0.289,0.479-0.473,0.814-0.488      c0.322-0.017,0.657,0.14,0.854,0.413l3.268,4.514c0.324,0.448,0.225,1.073-0.224,1.396      C133.087,53.216,132.882,53.277,132.679,53.277z"/>
			</g>
		</g>
		<g>
			<g>
				<path class="st0" d="M126.725,66.776c-0.828,0-1.5-0.672-1.5-1.5v-7.767l-3.144-0.624c-0.45-0.089-0.835-0.38-1.044-0.789      l-3.124-6.117c-0.377-0.738-0.084-1.641,0.653-2.018c0.738-0.377,1.642-0.084,2.019,0.654l2.793,5.469l3.347,0.664l3.346-0.664      l2.793-5.469c0.378-0.738,1.281-1.03,2.019-0.654c0.737,0.377,1.03,1.281,0.653,2.018l-3.124,6.117      c-0.209,0.409-0.594,0.699-1.044,0.789l-3.143,0.624v7.768C128.225,66.105,127.553,66.776,126.725,66.776z"/>
			</g>
		</g>
	</g>
	<g>
		<g>
			<path class="st3" d="M152.45,113.352c-1.604,0-2.933-1.267-2.996-2.883c-0.107-2.766-0.926-4.784-2.502-6.168     c-2.888-2.536-7.455-2.197-7.502-2.194c-1.627,0.151-3.109-1.065-3.259-2.716c-0.15-1.65,1.065-3.109,2.716-3.259     c0.287-0.027,7.153-0.598,12.004,3.661c2.839,2.493,4.366,6.007,4.539,10.443c0.064,1.656-1.226,3.05-2.882,3.115     C152.529,113.351,152.489,113.352,152.45,113.352z"/>
		</g>
	</g>
	<g>
		<g>
			<g>
				<path class="st20" d="M66.853,72.491H56c-5.523,0-10-4.477-10-10v-44c0-5.523,4.477-10,10-10H28c-5.523,0-10,4.477-10,10v44      c0,5.523,4.477,10,10,10h10.853l14.379,27.161c0.751,1.419,2.784,1.419,3.535,0L69,76.547L66.853,72.491z"/>
			</g>
		</g>
	</g>
	<g>
		<g>
			<circle class="st20" cx="60" cy="59.991" r="9"/>
		</g>
	</g>
</g>
</svg>
